# xmcd CD database file
#
# Track frame offsets:
#	150
#	9437
#	33292
#	56877
#	78695
#	104835
#	121412
#	141925
#	172309
#	195109
#	221907
#	250575
#	272755
#	301055
#
# Disc length: 4094 seconds
#
# Revision: 0
# Processed by: cddbd v1.5.2PL0 Copyright (c) Steve Scherf et al.
# Submitted via: CDex 1.51
#
DISCID=ca0ffc0e
DTITLE=Guy Printemps - Prélude au bien-être
DYEAR=2001
DGENRE=New Age
TTITLE0=L'enfant créateur
TTITLE1=Sentiers de fleurs
TTITLE2=Cosmos intérieur
TTITLE3=Fleur de lumière
TTITLE4=Born to take off
TTITLE5=Flaques de lumière
TTITLE6=Kiss landing on the mind
TTITLE7=Fenêtre sur coeur
TTITLE8=Romance intérieure
TTITLE9=Vers le temple aux oiseaux
TTITLE10=Plonger à renaître
TTITLE11=Clair-obscur
TTITLE12=Le sourire de l'enfant créateur
TTITLE13=Souvenir pour l'avenir
EXTD=YEAR: 2001
EXTT0=
EXTT1=
EXTT2=
EXTT3=
EXTT4=
EXTT5=
EXTT6=
EXTT7=
EXTT8=
EXTT9=
EXTT10=
EXTT11=
EXTT12=
EXTT13=
PLAYORDER=
